<mxfile host="app.diagrams.net" modified="2024-07-23T08:09:13.824Z" agent="Mozilla/5.0 (Macintosh; Intel Mac OS X 10_15_7) AppleWebKit/537.36 (KHTML, like Gecko) Chrome/126.0.0.0 Safari/537.36" version="24.7.3" etag="pUR3usae-cr3ZVqflBn_" type="github">
  <diagram name="페이지-1" id="JqgcGA6zVpHilvC6kpxr">
    <mxGraphModel>
      <root>
        <mxCell id="0" />
        <mxCell id="1" parent="0" />
      </root>
    </mxGraphModel>
  </diagram>
</mxfile>
